<svg xmlns="http://www.w3.org/2000/svg" viewBox="0 0 32 32" fill="none">
  <!-- Background circle -->
  <circle cx="16" cy="16" r="15" fill="#0a0a0f" stroke="#8B5CF6" stroke-width="2"/>

  <!-- D20 die shape - simplified hexagonal with inner details -->
  <path d="M16 4L26 10V22L16 28L6 22V10L16 4Z" fill="#12121a" stroke="#8B5CF6" stroke-width="1.5"/>

  <!-- Inner triangle facets -->
  <path d="M16 4L16 16L6 10L16 4Z" fill="#8B5CF6" fill-opacity="0.3"/>
  <path d="M16 4L26 10L16 16L16 4Z" fill="#8B5CF6" fill-opacity="0.2"/>
  <path d="M16 16L26 10L26 22L16 16Z" fill="#8B5CF6" fill-opacity="0.15"/>
  <path d="M16 16L16 28L26 22L16 16Z" fill="#8B5CF6" fill-opacity="0.25"/>
  <path d="M16 16L6 22L16 28L16 16Z" fill="#8B5CF6" fill-opacity="0.35"/>
  <path d="M6 10L16 16L6 22L6 10Z" fill="#8B5CF6" fill-opacity="0.2"/>

  <!-- Center highlight -->
  <circle cx="16" cy="16" r="3" fill="#8B5CF6"/>

  <!-- "20" text suggestion with dots -->
  <circle cx="14" cy="15" r="1" fill="#0a0a0f"/>
  <circle cx="18" cy="17" r="1" fill="#0a0a0f"/>
</svg>
