<svg xmlns="http://www.w3.org/2000/svg" viewBox="0 0 32 32" fill="none">
  <defs>
    <linearGradient id="grad" x1="0%" y1="0%" x2="100%" y2="100%">
      <stop offset="0%" style="stop-color:#9333EA"/>
      <stop offset="100%" style="stop-color:#6366F1"/>
    </linearGradient>
  </defs>
  <rect width="32" height="32" rx="8" fill="url(#grad)"/>
  <g stroke="white" stroke-width="1.5" stroke-linecap="round" stroke-linejoin="round" fill="none" transform="translate(6, 6)">
    <path d="m10 2.5-1.593 4.844a1.667 1.667 0 0 1-1.063 1.063L2.5 10l4.844 1.593a1.667 1.667 0 0 1 1.063 1.063L10 17.5l1.593-4.844a1.667 1.667 0 0 1 1.063-1.063L17.5 10l-4.844-1.593a1.667 1.667 0 0 1-1.063-1.063L10 2.5Z"/>
    <path d="M4.167 2.5v3.333"/>
    <path d="M15.833 14.167V17.5"/>
    <path d="M2.5 4.167h3.333"/>
    <path d="M14.167 15.833H17.5"/>
  </g>
</svg>
